<?xml version="1.0" encoding="UTF-8"?>
<svg width="118px" height="40px" viewBox="0 0 118 40" version="1.1" xmlns="http://www.w3.org/2000/svg" xmlns:xlink="http://www.w3.org/1999/xlink">
    <!-- Generator: Sketch 49.2 (51160) - http://www.bohemiancoding.com/sketch -->
    <title>Logo/Light</title>
    <desc>Created with Sketch.</desc>
    <defs></defs>
    <g id="Logo/Light" stroke="none" stroke-width="1" fill="none" fill-rule="evenodd">
        <g id="Logo">
            <path d="M105.648896,31.7677647 C106.677233,31.7677647 107.331522,32.3536471 107.634825,33.116 C107.962361,33.9246275 107.85683,35.0081569 107.039554,35.5940392 C107.974086,35.9928627 108.312566,36.7148235 108.312566,37.488549 C108.312566,38.7199216 107.506625,39.9622745 105.940864,39.9622745 L102.248857,39.9622745 L102.248857,31.7677647 L105.648896,31.7677647 Z M103.417119,35.1724706 L105.625445,35.1724706 C106.910963,35.1724706 106.934024,32.8932549 105.648896,32.8932549 L103.417119,32.8932549 L103.417119,35.1724706 Z M103.417119,38.8132549 L105.940864,38.8132549 C106.735079,38.8132549 107.132969,38.1454118 107.132969,37.5003137 C107.132969,36.8556078 106.735079,36.3446275 105.940864,36.3446275 L103.417119,36.3446275 L103.417119,38.8132549 Z" id="Fill-1" fill="#FFFFFF"></path>
            <path d="M117.199726,35.1738824 L117.161814,35.1738824 L115.978308,35.1738824 L113.124682,35.1738824 L112.797538,36.3013333 L116.022865,36.3013333 C115.807895,37.7150588 114.594294,38.8001569 113.124682,38.8001569 C111.50342,38.8001569 110.188978,37.4813333 110.188978,35.8542745 C110.188978,34.228 111.50342,32.9091765 113.124682,32.9091765 C114.114325,32.9091765 114.988665,33.4021176 115.520227,34.155451 L116.893297,34.155451 C116.246433,32.7138824 114.80301,31.7091765 113.124682,31.7091765 C110.842486,31.7091765 108.992965,33.5648627 108.992965,35.8542745 C108.992965,38.1440784 110.842486,40.0001569 113.124682,40.0001569 C115.406488,40.0001569 117.2564,38.1440784 117.2564,35.8542745 C117.2564,35.622902 117.236467,35.3950588 117.199726,35.1738824" id="Fill-3" fill="#FFFFFF"></path>
            <path d="M101.279656,35.1738824 L101.240962,35.1738824 L100.057846,35.1738824 L97.2042212,35.1738824 L96.8770764,36.3013333 L100.102404,36.3013333 C99.887434,37.7150588 98.6738323,38.8001569 97.2042212,38.8001569 C95.5829588,38.8001569 94.2689076,37.4813333 94.2689076,35.8542745 C94.2689076,34.228 95.5829588,32.9091765 97.2042212,32.9091765 C98.1942544,32.9091765 99.068204,33.4021176 99.5997655,34.155451 L100.972836,34.155451 C100.326363,32.7138824 98.8821575,31.7091765 97.2042212,31.7091765 C94.9224155,31.7091765 93.0725034,33.5648627 93.0725034,35.8542745 C93.0725034,38.1440784 94.9224155,40.0001569 97.2042212,40.0001569 C99.486027,40.0001569 101.335939,38.1440784 101.335939,35.8542745 C101.335939,35.622902 101.316005,35.3950588 101.279656,35.1738824" id="Fill-6" fill="#FFFFFF"></path>
            <polygon id="Fill-9" fill="#FFFFFF" points="42.3836232 6.98796078 45.3724839 5.25619608 45.3724839 28.7412941 42.3836232 28.7412941"></polygon>
            <path d="M58.3715849,21.8983529 C58.3715849,19.3940392 56.5138558,17.7928627 54.2504202,17.7928627 C52.0155169,17.7928627 50.1581786,19.3940392 50.1581786,21.8983529 C50.1581786,24.4607059 52.0155169,26.1207059 54.2504202,26.1207059 C56.5138558,26.1207059 58.3715849,24.4607059 58.3715849,21.8983529 M47.1982412,21.8983529 C47.1982412,17.5889412 50.4192691,14.8516863 54.2504202,14.8516863 C58.1101036,14.8516863 61.3604456,17.5889412 61.3604456,21.8983529 C61.3604456,26.2077647 58.1101036,29.0324706 54.2504202,29.0324706 C50.4192691,29.0324706 47.1982412,26.2077647 47.1982412,21.8983529" id="Fill-11" fill="#FFFFFF"></path>
            <path d="M69.8204808,17.7634902 C67.5566543,17.7634902 65.7864765,19.4815294 65.7864765,22.0148627 C65.7864765,24.5191765 67.5566543,26.1497647 69.8204808,26.1497647 C71.8517491,26.1497647 73.9416455,24.6936863 73.9416455,22.0148627 C73.9416455,19.3650588 72.055384,17.7634902 69.8204808,17.7634902 Z M73.9705687,15.1427059 L76.9598202,15.1427059 L76.9598202,34.830549 L73.9705687,36.5623137 L73.9705687,26.790549 C73.1579832,28.3046667 71.2717217,29.0325098 69.4433066,29.0325098 C65.7864765,29.0325098 62.7104553,26.2952549 62.7104553,21.9564314 C62.7104553,17.6760392 65.7864765,14.8517255 69.4433066,14.8517255 C71.2717217,14.8517255 73.1579832,15.6964314 73.9705687,17.1521176 L73.9705687,15.1427059 Z" id="Fill-13" fill="#FFFFFF"></path>
            <path d="M85.9130741,26.120549 C88.1186633,26.120549 90.0916944,24.5770196 90.0916944,21.8981961 C90.0916944,19.2193725 87.9443424,17.7632941 85.9130741,17.7632941 C83.6492476,17.7632941 81.7629861,19.3942745 81.7629861,21.8981961 C81.7629861,24.4025098 83.6492476,26.120549 85.9130741,26.120549 Z M90.1210084,26.7903529 C89.2212625,28.275451 87.2478405,29.0327059 85.5644323,29.0327059 C81.907993,29.0327059 78.6865742,26.2660392 78.6865742,21.9276078 C78.6865742,17.5887843 81.907993,14.8519216 85.5644323,14.8519216 C87.1899941,14.8519216 89.1923393,15.5217255 90.1210084,17.0648627 L90.1210084,15.142902 L93.0813367,15.142902 L93.0813367,28.7413333 L90.1210084,28.7413333 L90.1210084,26.7903529 Z" id="Fill-15" fill="#FFFFFF"></path>
            <polygon id="Fill-17" fill="#FFFFFF" points="100.376979 15.1428627 103.250537 15.1428627 103.250537 17.6181569 100.376979 17.6181569 100.376979 28.7412941 97.388118 28.7412941 97.388118 17.6181569 94.9499707 17.6181569 94.9499707 15.1428627 97.388118 15.1428627 97.388118 10.471098 100.376979 8.73972549"></polygon>
            <path d="M114.325191,20.8210588 C114.034786,18.6955686 112.496385,17.4724314 110.465116,17.4724314 C108.375611,17.4724314 106.75044,18.7245882 106.460035,20.8210588 L114.325191,20.8210588 Z M115.736174,26.9641961 C114.399844,28.3700784 112.441274,29.0324314 110.465116,29.0324314 C106.605433,29.0324314 103.500098,26.2077255 103.500098,21.8983137 C103.500098,17.588902 106.605433,14.8516471 110.465116,14.8516471 C114.325191,14.8516471 117.256205,17.588902 117.256205,21.8983137 C117.256205,22.2187059 117.256205,22.7136078 117.227282,23.0049804 L106.460035,23.0049804 C106.75044,25.101451 108.433848,26.4116471 110.610123,26.4116471 C112.11921,26.4116471 113.599765,25.7132157 114.296267,24.4606667 L115.736174,26.9641961 Z" id="Fill-19" fill="#FFFFFF"></path>
            <polygon id="Fill-22" fill="#F4F2F1" points="36.440258 26.1155686 18.2202072 36.5618431 0.000156341606 26.1155686 0.000156341606 20.8924314 18.2202072 31.3387059 36.440258 20.8924314"></polygon>
            <polygon id="Fill-24" fill="#F4F2F1" points="36.440258 15.6694118 36.440258 10.4462745 18.2202072 0 0.000156341606 10.4462745 0.000156341606 15.6694118 18.2202072 26.1156863 27.3302326 20.8921569 27.3302326 15.6694118 18.2202072 20.8921569 4.55516904 13.0580392 18.2202072 5.22313725"></polygon>
        </g>
    </g>
</svg>